<svg xmlns="http://www.w3.org/2000/svg" viewBox="0 0 525.153 525.153">
  <path d="M139.165 51.421l-35.776-35.864C43.413 61.202 3.742 132.185 0 212.402h50.174c3.742-66.41 37.877-124.636 88.991-160.981zm335.814 160.981h50.174c-3.742-80.217-43.413-151.2-103.586-196.845l-35.863 35.864c51.398 36.345 85.533 94.571 89.275 160.981zm-49.387 12.582c0-77-53.391-141.463-125.424-158.487V49.408c0-20.787-16.761-37.614-37.592-37.614s-37.592 16.827-37.592 37.614v17.089C152.951 83.521 99.56 148.005 99.56 224.984v137.918L49.408 413.01v25.076h426.336V413.01l-50.152-50.108V224.984zM262.576 513.358c3.523 0 6.761-.219 10.065-1.007 16.236-3.238 29.824-14.529 36.06-29.627 2.516-5.952 4.048-12.494 4.048-19.54H212.402c0 27.593 22.582 50.174 50.174 50.174z"/>
</svg>
