<svg xmlns="http://www.w3.org/2000/svg" xmlns:xlink="http://www.w3.org/1999/xlink" viewBox="0 0 22.72 14.38">
    <g>
        <g class="g+">
            <path class="g+" d="M7.19,5.75a.45.45,0,0,0,0,.11V8.64H11A3.29,3.29,0,0,1,9.62,10.8a4.12,4.12,0,0,1-2.09.68A4.13,4.13,0,0,1,6,11.29,4.31,4.31,0,0,1,3,7.55a4.08,4.08,0,0,1,.09-1.3A4.25,4.25,0,0,1,7.82,2.94,3.88,3.88,0,0,1,9.93,4L12,1.86A10,10,0,0,0,10.75.93,6.82,6.82,0,0,0,7.34,0L6.65,0A5.81,5.81,0,0,0,5.47.21,7,7,0,0,0,1.61,2.67,7,7,0,0,0,0,6.78,6.58,6.58,0,0,0,.17,8.71,7.09,7.09,0,0,0,3,13a6.93,6.93,0,0,0,3.84,1.36,7.52,7.52,0,0,0,2.36-.23,6.28,6.28,0,0,0,3.54-2.33A7.68,7.68,0,0,0,14,5.75Z" />
            <polygon class="g+" points="22.65 5.84 20.21 5.84 20.21 3.4 20.21 3.33 20.14 3.33 18.32 3.33 18.25 3.33 18.25 3.4 18.25 5.84 15.81 5.84 15.74 5.84 15.74 5.91 15.74 7.73 15.74 7.81 15.81 7.81 18.25 7.81 18.25 10.24 18.25 10.32 18.32 10.32 20.14 10.32 20.21 10.32 20.21 10.24 20.21 7.81 22.65 7.81 22.72 7.81 22.72 7.73 22.72 5.91 22.72 5.84 22.65 5.84" />
        </g>
    </g>
</svg>
