<svg xmlns="http://www.w3.org/2000/svg" viewBox="0 0 22.72 14.38">
  <g class="g+">
    <path class="g+" d="M7.19 5.75a.45.45 0 000 .11v2.78H11a3.29 3.29 0 01-1.38 2.16 4.12 4.12 0 01-2.09.68A4.13 4.13 0 016 11.29a4.31 4.31 0 01-3-3.74 4.08 4.08 0 01.09-1.3 4.25 4.25 0 014.73-3.31A3.88 3.88 0 019.93 4L12 1.86a10 10 0 00-1.25-.93A6.82 6.82 0 007.34 0h-.69a5.81 5.81 0 00-1.18.21 7 7 0 00-3.86 2.46A7 7 0 000 6.78a6.58 6.58 0 00.17 1.93A7.09 7.09 0 003 13a6.93 6.93 0 003.84 1.36 7.52 7.52 0 002.36-.23 6.28 6.28 0 003.54-2.33A7.68 7.68 0 0014 5.75zM22.65 5.84h-2.44V3.33H18.25v2.51h-2.51V7.81h2.51V10.32H20.21V7.81h2.51V5.84h-.07z"/>
  </g>
</svg>
