<svg xmlns="http://www.w3.org/2000/svg" viewBox="0 0 15.94 15.93">
  <defs>
    <linearGradient id="a" y1="7.96" x2="15.94" y2="7.96" gradientUnits="userSpaceOnUse">
      <stop offset="0" stop-color="#b27f2a"/>
      <stop offset=".06" stop-color="#b7862e"/>
      <stop offset=".14" stop-color="#c49939"/>
      <stop offset=".24" stop-color="#dab84c"/>
      <stop offset=".33" stop-color="#f4dd62"/>
      <stop offset=".52" stop-color="#f4e38b"/>
      <stop offset=".66" stop-color="#f4dd62"/>
      <stop offset="1" stop-color="#b27f2a"/>
    </linearGradient>
  </defs>
  <g data-name="Слой 2">
    <path d="M15.81 4a4.23 4.23 0 00-1.29-2.72A4.39 4.39 0 0011.6.09a57.11 57.11 0 00-7.89.09A4 4 0 00.27 3.27a44.64 44.64 0 00-.09 9 4 4 0 003.21 3.47 46.33 46.33 0 008.82.06 4 4 0 003.49-3.19c.36-1.44.23-7.36.11-8.61zm-1.47 8a2.71 2.71 0 01-2.54 2.41 47.77 47.77 0 01-8.21-.12A2.61 2.61 0 011.6 12a53.88 53.88 0 010-8 2.7 2.7 0 012.53-2.4 56.94 56.94 0 017.84 0 2.7 2.7 0 012.4 2.54 56.89 56.89 0 01-.03 7.86zM8 3.88A4.09 4.09 0 1012.06 8 4.09 4.09 0 008 3.88zm0 6.73A2.65 2.65 0 1110.61 8a2.65 2.65 0 01-2.67 2.61zm5.23-6.89a1 1 0 11-.95-1 1 1 0 01.89 1z" fill="url(#a)" data-name="Layer 1"/>
  </g>
</svg>
