<svg xmlns="http://www.w3.org/2000/svg" viewBox="0 0 16.99 13.83">
  <defs>
    <linearGradient id="a" y1="6.91" x2="16.99" y2="6.91" gradientUnits="userSpaceOnUse">
      <stop offset="0" stop-color="#b27f2a"/>
      <stop offset=".06" stop-color="#b7862e"/>
      <stop offset=".14" stop-color="#c49939"/>
      <stop offset=".24" stop-color="#dab84c"/>
      <stop offset=".33" stop-color="#f4dd62"/>
      <stop offset=".52" stop-color="#f4e38b"/>
      <stop offset=".66" stop-color="#f4dd62"/>
      <stop offset="1" stop-color="#b27f2a"/>
    </linearGradient>
  </defs>
  <g data-name="Слой 2">
    <path d="M5.15 10.82A3.51 3.51 0 011.9 8.4a3.45 3.45 0 001.5-.05h.05a3.5 3.5 0 01-2.27-1.6 3.43 3.43 0 01-.51-1.88 3.4 3.4 0 001.56.42A3.47 3.47 0 01.79 3.18 3.49 3.49 0 011.16.65a10 10 0 007.2 3.65v-.39a3.34 3.34 0 01.51-2.28A3.37 3.37 0 0111.19.05a3.41 3.41 0 013.05 1 .19.19 0 00.19.05 6.78 6.78 0 002-.78A3.6 3.6 0 0115 2.18a6.87 6.87 0 002-.53c-.13.17-.26.35-.4.52a6.93 6.93 0 01-1.28 1.23.13.13 0 00-.06.11 10.1 10.1 0 01-.06 1.55 10.57 10.57 0 01-.9 3.11 10 10 0 01-1.89 2.75 9.34 9.34 0 01-4.8 2.67 10.59 10.59 0 01-1.94.23 9.85 9.85 0 01-5.59-1.5L0 12.27a7 7 0 003.49-.48 6.8 6.8 0 001.66-.97z" fill-rule="evenodd" fill="url(#a)" data-name="Layer 1"/>
  </g>
</svg>
