<svg xmlns="http://www.w3.org/2000/svg" xmlns:xlink="http://www.w3.org/1999/xlink" viewBox="0 0 15.94 15.93"><defs><style>.cls-1{fill:url(#linear-gradient);}</style><linearGradient id="linear-gradient" y1="7.96" x2="15.94" y2="7.96" gradientUnits="userSpaceOnUse"><stop offset="0" stop-color="#b27f2a"/><stop offset="0.06" stop-color="#b7862e"/><stop offset="0.14" stop-color="#c49939"/><stop offset="0.24" stop-color="#dab84c"/><stop offset="0.33" stop-color="#f4dd62"/><stop offset="0.52" stop-color="#f4e38b"/><stop offset="0.66" stop-color="#f4dd62"/><stop offset="1" stop-color="#b27f2a"/></linearGradient></defs><title>Ресурс 3</title><g id="Слой_2" data-name="Слой 2"><g id="Layer_1" data-name="Layer 1"><path class="cls-1" d="M15.81,4a4.23,4.23,0,0,0-1.29-2.72A4.39,4.39,0,0,0,11.6.09,57.11,57.11,0,0,0,3.71.18,4,4,0,0,0,.27,3.27a44.64,44.64,0,0,0-.09,9,4,4,0,0,0,3.21,3.47,46.33,46.33,0,0,0,8.82.06,4,4,0,0,0,3.49-3.19C16.06,11.17,15.93,5.25,15.81,4Zm-1.47,8a2.71,2.71,0,0,1-2.54,2.41,47.77,47.77,0,0,1-8.21-.12A2.61,2.61,0,0,1,1.6,12a53.88,53.88,0,0,1,0-8,2.7,2.7,0,0,1,2.53-2.4,56.94,56.94,0,0,1,7.84,0,2.7,2.7,0,0,1,2.4,2.54A56.89,56.89,0,0,1,14.34,12ZM8,3.88A4.09,4.09,0,1,0,12.06,8,4.09,4.09,0,0,0,8,3.88Zm0,6.73A2.65,2.65,0,1,1,10.61,8,2.65,2.65,0,0,1,7.94,10.61Zm5.23-6.89a1,1,0,1,1-.95-1A1,1,0,0,1,13.17,3.72Z"/></g></g></svg>