<svg xmlns="http://www.w3.org/2000/svg" xmlns:xlink="http://www.w3.org/1999/xlink" viewBox="0 0 16.99 13.83"><defs><style>.cls-1{fill-rule:evenodd;fill:url(#linear-gradient);}</style><linearGradient id="linear-gradient" y1="6.91" x2="16.99" y2="6.91" gradientUnits="userSpaceOnUse"><stop offset="0" stop-color="#b27f2a"/><stop offset="0.06" stop-color="#b7862e"/><stop offset="0.14" stop-color="#c49939"/><stop offset="0.24" stop-color="#dab84c"/><stop offset="0.33" stop-color="#f4dd62"/><stop offset="0.52" stop-color="#f4e38b"/><stop offset="0.66" stop-color="#f4dd62"/><stop offset="1" stop-color="#b27f2a"/></linearGradient></defs><title>Ресурс 5</title><g id="Слой_2" data-name="Слой 2"><g id="Layer_1" data-name="Layer 1"><path class="cls-1" d="M5.15,10.82A3.51,3.51,0,0,1,1.9,8.4a3.45,3.45,0,0,0,1.5-.05l.05,0a3.5,3.5,0,0,1-2.27-1.6A3.43,3.43,0,0,1,.67,4.87a3.4,3.4,0,0,0,1.56.42A3.47,3.47,0,0,1,.79,3.18,3.49,3.49,0,0,1,1.16.65,10,10,0,0,0,8.36,4.3c0-.14,0-.26,0-.39a3.34,3.34,0,0,1,.51-2.28A3.37,3.37,0,0,1,11.19.05a3.41,3.41,0,0,1,3.05,1,.19.19,0,0,0,.19.05,6.78,6.78,0,0,0,2-.78l0,0h0A3.6,3.6,0,0,1,15,2.18a6.87,6.87,0,0,0,2-.53v0c-.13.17-.26.35-.4.52A6.93,6.93,0,0,1,15.32,3.4a.13.13,0,0,0-.06.11,10.1,10.1,0,0,1-.06,1.55,10.57,10.57,0,0,1-.9,3.11,10,10,0,0,1-1.89,2.75,9.34,9.34,0,0,1-4.8,2.67,10.59,10.59,0,0,1-1.94.23,9.85,9.85,0,0,1-5.59-1.5L0,12.27a7,7,0,0,0,3.49-.48A6.8,6.8,0,0,0,5.15,10.82Z"/></g></g></svg>